<svg width="302" height="100" viewBox="0 0 302 100" fill="none" xmlns="http://www.w3.org/2000/svg">
<path d="M116.027 86.6971C104.848 79.4955 89.6761 78.2318 65.208 85.0202C39.1235 91.1499 30.4266 95.0793 19.005 87.1913C14.6171 83.3164 13.044 77.0774 14.2187 68.0905C16.9433 53.4404 24.3063 39.3419 37.3848 23.7033C44.685 15.5682 51.4566 8.58673 60.3984 5.78326C67.2514 4.02457 66.6107 9.41031 65.7815 10.1806C64.9064 10.1806 63.4366 10.3184 62.3005 11.0597C61.3785 11.7748 58.8477 14.0836 58.7118 17.1894C58.5157 21.9439 63.4362 20.9543 65.5584 18.3439C67.8459 15.4022 71.2265 9.76896 68.5673 4.51879C67.4527 2.65006 65.5268 1.35855 63.1357 0.918786C54.948 0.450852 47.3225 4.35393 40.2851 8.66898C24.8944 19.3605 12.5828 34.1751 5.61636 50.3913C1.59987 60.1754 -2.03243 74.1909 3.41227 85.5982C7.62404 93.5133 16.3683 97.7175 26.8007 96.8384C34.1175 96.0696 42.965 93.7048 48.9156 92.277C54.8662 90.8469 85.3265 80.3762 95.3349 98.5997C95.3349 98.5997 98.663 92.1391 106.98 92.0013C113.818 91.3704 123.683 93.9808 130.867 99.2569C128.473 95.6576 121.688 90.353 116.027 86.6971Z" fill="#5380EA" fill-opacity="0.6"/>
<path d="M68.3141 25.5446C62.617 21.8067 51.1666 28.9527 41.9953 41.2102C33.6085 52.2051 29.9871 64.9839 33.9281 70.8932C39.7908 77.8465 50.6742 67.7326 55.3025 62.319L55.8996 61.6862C59.0471 58.3055 61.4787 54.2376 63.8323 50.3345C63.8323 50.3345 65.9955 46.7616 66.0987 46.5963C67.4357 46.35 69.046 45.965 70.8607 45.4426C70.8348 45.5245 63.9179 57.1507 64.6236 62.9214C64.8433 64.682 64.6754 71.1133 70.9546 73.0642C79.3233 74.4669 86.0058 67.9797 91.9012 62.2079C91.9012 62.2079 92.9058 61.2468 93.474 60.6982C93.3301 61.2739 93.1427 62.0419 93.1427 62.0419C90.6927 70.5623 93.9952 72.3499 96.0611 73.0098C102.305 74.8248 109.763 65.7542 109.787 65.7542C109.594 68.6114 109.028 70.9751 112.04 72.8716C114.883 73.8893 117.76 72.3379 119.947 70.8812C127.824 65.3294 134.17 56.6404 139.296 49.1294H136.027C135.988 49.1294 127.959 60.7669 122.745 63.2962C122.737 63.2962 121.788 63.7833 121.241 63.398C120.565 62.8204 120.832 61.6201 121.25 60.7699C121.276 60.7143 141.38 25.8454 141.38 25.8454H131.888C131.888 25.8454 130.851 27.523 130.766 27.633C130.702 27.5782 130.55 27.2898 130.445 27.1516C124.564 19.0164 111.246 31.5297 101.219 46.0409C97.3587 51.6208 92.4438 57.9033 87.3476 62.4381C87.3476 62.4381 79.798 69.3587 76.572 64.3864C75.3928 62.2973 75.7556 59.2429 76.4207 57.2371C80.1766 46.5456 86.6484 36.8426 94.0129 30.9878C96.0919 29.3673 98.3516 28.8986 99.473 29.5859C100.541 30.219 100.714 31.7843 100.038 32.8565C98.3227 32.8017 96.9485 33.3229 95.8313 34.4774C93.6306 36.7862 92.866 39.0129 93.5656 41.102C96.9647 45.9391 103.744 36.3743 103.416 30.5476C103.299 28.4585 102.184 26.4801 100.521 25.5172C98.0418 24.0337 94.26 24.4179 91.8125 25.6005C88.5363 26.8368 83.3499 31.1515 80.3226 34.5052C76.5116 38.7109 69.9755 43.3828 67.9314 42.8596C68.601 41.0724 74.122 29.7766 68.3141 25.5446ZM114.079 42.255C115.925 39.6994 121.3 32.8554 122.61 31.7013C127.017 27.8245 128.778 29.5303 128.931 30.7388C124.818 38.1044 119.964 46.5426 115.4 54.1287C115.41 54.1017 113.972 56.2997 113.972 56.2997C111.957 59.3774 109.927 62.016 106.617 63.8573C106.145 63.9955 105.366 64.0507 104.849 63.6646C104.225 63.2523 103.979 62.565 104.049 61.85C104.248 59.487 106.654 52.26 114.079 42.255ZM62.439 46.6797C62.439 46.6797 62.3564 46.9279 62.3155 47.0091C62.3049 47.0091 58.1769 53.7419 58.1769 53.7419C55.6855 57.0681 52.5749 61.2468 48.6864 63.2523C47.5339 63.6372 45.9408 63.8851 45.1289 62.8688C43.4077 60.8071 44.2948 57.9488 45.0155 55.6403L45.2704 54.8156C47.3367 49.2094 50.6153 44.2612 53.8063 39.6712C53.8461 39.6442 53.9355 39.6168 53.9678 39.6168C53.9753 39.6442 53.9881 39.6442 53.9937 39.6994C55.9961 43.5465 59.7508 45.3322 62.5588 46.1581C62.5757 46.1581 62.5937 46.1855 62.5937 46.2407C62.5941 46.3225 62.5483 46.4333 62.439 46.6797ZM66.35 38.7376C66.332 38.7924 64.5113 42.9697 64.5113 42.9697C64.248 43.1893 63.8319 43.0797 63.355 42.9697L62.5378 42.8314C59.9717 42.0349 58.0361 40.3307 57.4393 38.2971C56.6161 34.3392 59.9972 31.2334 61.487 30.1071C62.9163 29.1168 65.1385 28.5948 66.4288 29.6121C67.2246 30.5469 67.5262 31.7558 67.5262 33.0758C67.5266 34.8619 66.9753 36.8681 66.35 38.7376Z" fill="#5380EA" fill-opacity="0.6"/>
<path d="M186.353 51.4893C185.438 49.5109 183.265 48.2465 180.949 48.3835C173.43 49.0712 166.075 55.255 162.213 64.1318C160.186 68.6947 159.08 72.4596 158.355 78.4511C160.693 75.7584 165.463 71.3337 170.875 68.9148C170.875 68.9148 171.612 63.1708 175.367 58.0584C176.788 55.9415 179.632 52.5337 182.826 53.4403C185.616 54.3754 184.635 62.0986 180.927 69.5727C178.183 75.0704 173.985 80.5688 169.736 84.3607C165.98 87.5491 160.423 91.3966 155.562 88.4286C152.499 86.6155 150.937 82.8217 151.268 77.9294C152.731 64.0503 159.049 52.2318 168.09 38.7646C177.413 26.2592 187.689 13.4241 201.533 6.57936C204.357 5.1504 206.972 4.82067 209.232 5.7002C209.232 5.7002 196.237 12.8461 190.042 26.0666C188.466 29.4202 186.274 33.9538 188.481 37.967C189.635 40.0554 191.683 40.2206 193.331 40.1106C200.924 38.3511 205.83 31.2604 209.838 24.7747C212.162 19.855 214.228 14.9627 214.228 9.52066C214.228 8.86119 214.194 7.98204 214.138 7.32182C217.766 5.39864 225.204 8.80599 225.204 8.80599C231.018 10.7307 243.395 20.2133 247.571 22.0264C249.607 19.6631 252.954 16.0905 254.839 14.3036L252.111 12.6268C247.743 9.9608 243.126 7.43186 238.582 4.93108C228.263 -0.702523 219.863 1.27587 215.587 2.81524C213.907 3.4195 212.372 3.94188 212.372 3.94188C209.199 0.478953 203.996 0.807933 200.162 1.74305C186.374 5.70058 173.573 15.3473 159.848 32.0859C149.758 45.1963 143.499 56.5202 140.163 67.7059C137.592 75.236 136.81 86.3124 143.086 92.8815C148.422 98.4592 155.498 97.251 160.495 95.2452C171.321 89.9132 181.051 78.424 185.899 65.204C187.069 61.2742 188.368 55.7225 186.353 51.4893ZM211.247 10.0708C209.814 26.5067 197.038 36.1546 193.877 36.9229C191.961 37.3071 188.692 36.4557 191.611 29.558C195.908 20.2674 203.245 12.3801 211.116 8.33956C211.308 9.02681 211.303 9.46545 211.247 10.0708Z" fill="#5380EA" fill-opacity="0.6"/>
<path d="M287.032 12.1589C280.16 16.0623 273.036 18.5902 264.413 17.711C262.023 20.4052 259.696 23.1809 257.551 26.0388C269.654 29.1172 282.486 22.2735 289.642 15.7604C297.213 9.1913 301.095 0.919098 301.095 0.919098C301.095 0.919098 295.42 7.40482 287.032 12.1589Z" fill="#5380EA" fill-opacity="0.6"/>
<path d="M152.07 34.1078L157.157 25.8458H148.143L143.058 34.1078H152.07Z" fill="#5380EA" fill-opacity="0.6"/>
<path d="M264.376 87.462C263.407 88.1215 262.045 87.6145 262.554 86.1033C263.822 82.2554 268.865 74.4139 268.865 74.4139L282.909 49.5053H273.289C272.831 50.2564 271.854 51.9813 271.854 51.9813C271.408 51.24 270.078 49.5913 269.53 49.2353C267.179 47.75 263.731 48.4523 261.352 49.7986C251.01 55.8461 243.464 67.7941 237.513 77.1119C237.513 77.1119 231.249 87.4695 227.771 88.2398C225.056 88.4598 225.337 84.8027 225.454 83.9506C226.504 77.7931 228.941 71.9395 231.398 66.6348C236.393 63.1719 242.094 58.6372 247.274 53.6626C258.517 42.9152 267.996 30.7395 269.381 28.0187C269.381 28.0187 267.882 28.3214 266.111 28.3758C257.461 40.4415 239.761 57.9773 234.395 60.5877C236.772 54.87 252.131 27.5785 265.201 14.5237L267.258 12.5442C270.438 9.43842 273.734 6.25039 276.302 5.728C276.573 5.70059 276.922 5.728 277.223 6.36118C277.338 8.77934 276.438 10.5662 275.405 12.5998L273.958 15.5685C273.958 15.5685 276.008 15.1836 277.354 14.7427C278.916 11.8033 280.647 8.50406 280.009 4.5747C279.796 3.31022 278.881 2.34844 277.685 2.12837C273.786 1.38629 269.536 4.27125 266.117 6.60829L265.979 6.69016C248.403 20.46 233.561 40.304 220.586 67.404C219.646 68.1175 216.012 68.9704 215.394 68.5576C216.676 65.9198 218.289 62.3735 219.096 58.5256C219.236 57.426 219.366 56.2997 219.366 55.2005C219.366 52.8349 218.798 50.6094 216.679 49.0708C214.194 47.8337 211.124 48.4113 209.053 49.3453C199.778 53.1932 192.846 62.7036 187.843 70.5357C185.153 75.5117 182.47 80.8411 181.728 86.9437C181.204 91.7252 182.269 94.8036 184.988 96.3433C187.784 97.7716 191.303 96.287 192.685 95.5731C202.082 90.626 208.647 80.7048 213.823 71.6341C214.028 71.6071 216.854 71.5252 218.991 70.9747C219.02 70.9747 219.032 70.9747 219.079 71.0036C218.957 71.4141 217.852 74.7133 217.852 74.7133C214.572 84.3322 213.055 90.8742 216.154 94.7488C220.581 100.219 227.911 94.5572 233.873 87.0801C232.593 96.0399 237.237 97.4422 240.777 96.7557C244.843 95.6568 249.374 91.3132 251.476 89.0877C250.801 91.6982 250.985 96.3711 254.683 96.8379C257.219 97.3066 259.116 95.9276 261.312 94.7454C269.186 90.4574 278.613 76.1689 281.06 72.0378H277.851C274.372 77.2959 269.945 84.1898 264.376 87.462ZM193.691 86.5051C193.192 85.763 193.026 84.9515 193.009 84.0742C192.914 78.6851 198.712 69.0338 202.804 63.7762C202.813 63.7762 202.813 63.7762 202.813 63.7762C204.528 67.5316 208.412 69.9457 210.757 70.963C207.845 77.4499 197.858 91.3422 193.691 86.5051ZM212.4 68.063C212.123 68.2565 207.225 66.6067 206.279 62.0719C205.476 58.1677 208.164 55.1171 210.765 53.5793C211.882 52.6994 213.564 52.3978 214.797 52.8357C215.942 53.6063 216.252 54.9816 216.252 56.4635C216.252 57.3723 216.132 58.3059 216.026 59.1577C216.026 59.1577 216.005 59.3233 216.002 59.3507C215.186 62.4005 213.937 65.3967 212.4 68.063ZM251.681 84.7738C251.677 84.7738 250.752 85.5982 250.752 85.5982C249.431 86.7793 248.071 88.0437 246.43 87.4113C245.977 87.2464 245.658 86.6426 245.581 86.1739C245.507 82.7932 247.029 79.6607 248.505 76.6105L248.884 75.8129C253.131 68.7221 258.067 60.3669 265.316 54.5685C266.538 53.687 267.864 52.9465 269.263 53.5241C269.585 53.8256 269.96 54.3484 269.96 54.87C269.96 55.0356 269.813 55.475 269.728 55.6117C267.703 58.8839 265.775 62.319 263.9 65.6167C260.235 72.131 256.434 78.8638 251.681 84.7738Z" fill="#5380EA" fill-opacity="0.6"/>
</svg>
