<svg width="83" height="19" viewBox="0 0 83 19" fill="none" xmlns="http://www.w3.org/2000/svg">
<path d="M0.121721 18.064V0.609419H7.11036C8.39445 0.609419 9.46547 0.79976 10.3234 1.18044C11.1814 1.56112 11.8263 2.08953 12.2581 2.76567C12.6899 3.43612 12.9058 4.20885 12.9058 5.08385C12.9058 5.76567 12.7694 6.3651 12.4967 6.88215C12.224 7.39351 11.849 7.81396 11.3717 8.14351C10.9001 8.46737 10.3604 8.69749 9.7524 8.83385V9.00431C10.4172 9.03271 11.0393 9.22021 11.6189 9.56681C12.2041 9.9134 12.6785 10.3992 13.0422 11.0242C13.4058 11.6435 13.5876 12.3821 13.5876 13.2401C13.5876 14.1662 13.3575 14.9929 12.8973 15.7202C12.4427 16.4418 11.7694 17.0128 10.8774 17.4333C9.98536 17.8537 8.88593 18.064 7.57911 18.064H0.121721ZM3.81206 15.0469H6.82058C7.84899 15.0469 8.59899 14.8509 9.07058 14.4589C9.54218 14.0611 9.77797 13.5327 9.77797 12.8736C9.77797 12.3907 9.66149 11.9645 9.42854 11.5952C9.19559 11.2259 8.8632 10.9361 8.43138 10.7259C8.00524 10.5157 7.49672 10.4106 6.90581 10.4106H3.81206V15.0469ZM3.81206 7.9134H6.54786C7.05354 7.9134 7.5024 7.82533 7.89445 7.64919C8.29218 7.46737 8.60468 7.21169 8.83195 6.88215C9.0649 6.5526 9.18138 6.15771 9.18138 5.69749C9.18138 5.06681 8.95695 4.55828 8.50808 4.17192C8.0649 3.78555 7.43422 3.59237 6.61604 3.59237H3.81206V7.9134ZM15.9207 18.064V4.97306H19.4406V7.25715H19.577C19.8156 6.44465 20.2162 5.83101 20.7787 5.41624C21.3412 4.99578 21.9889 4.78556 22.7219 4.78556C22.9037 4.78556 23.0997 4.79692 23.3099 4.81965C23.5202 4.84237 23.7048 4.87362 23.8639 4.9134V8.13499C23.6935 8.08385 23.4577 8.0384 23.1565 7.99862C22.8554 7.95885 22.5798 7.93896 22.3298 7.93896C21.7957 7.93896 21.3185 8.05544 20.898 8.2884C20.4832 8.51567 20.1537 8.83385 19.9094 9.24294C19.6707 9.65203 19.5514 10.1236 19.5514 10.6577V18.064H15.9207ZM29.099 18.3111C28.2638 18.3111 27.5194 18.1662 26.866 17.8765C26.2126 17.581 25.6956 17.1464 25.3149 16.5725C24.9399 15.9929 24.7524 15.2714 24.7524 14.4077C24.7524 13.6804 24.8859 13.0696 25.153 12.5753C25.42 12.081 25.7837 11.6833 26.2439 11.3821C26.7041 11.081 27.2268 10.8537 27.8121 10.7003C28.403 10.5469 29.0223 10.439 29.67 10.3765C30.4314 10.2969 31.045 10.2231 31.5109 10.1549C31.9768 10.081 32.3149 9.97306 32.5251 9.83101C32.7354 9.68896 32.8405 9.47874 32.8405 9.20033V9.14919C32.8405 8.60942 32.67 8.19181 32.3291 7.89635C31.9939 7.6009 31.5166 7.45317 30.8973 7.45317C30.2439 7.45317 29.724 7.59806 29.3376 7.88783C28.9513 8.17192 28.6956 8.52987 28.5706 8.96169L25.2126 8.68896C25.3831 7.89351 25.7183 7.20601 26.2183 6.62646C26.7183 6.04124 27.3632 5.59237 28.153 5.27987C28.9484 4.96169 29.8689 4.8026 30.9143 4.8026C31.6416 4.8026 32.3376 4.88783 33.0024 5.05828C33.6729 5.22874 34.2666 5.49294 34.7837 5.8509C35.3064 6.20885 35.7183 6.66908 36.0194 7.23158C36.3206 7.7884 36.4712 8.45601 36.4712 9.23442V18.064H33.028V16.2486H32.9257C32.7155 16.6577 32.4342 17.0185 32.0819 17.331C31.7297 17.6378 31.3064 17.8793 30.8121 18.0554C30.3177 18.2259 29.7467 18.3111 29.099 18.3111ZM30.1388 15.8054C30.6729 15.8054 31.1444 15.7003 31.5535 15.4901C31.9626 15.2742 32.2837 14.9844 32.5166 14.6208C32.7496 14.2571 32.866 13.8452 32.866 13.385V11.9958C32.7524 12.0696 32.5962 12.1378 32.3973 12.2003C32.2041 12.2571 31.9854 12.3111 31.741 12.3623C31.4967 12.4077 31.2524 12.4503 31.0081 12.4901C30.7638 12.5242 30.5422 12.5554 30.3433 12.5839C29.9172 12.6464 29.545 12.7458 29.2268 12.8821C28.9087 13.0185 28.6615 13.2032 28.4854 13.4361C28.3092 13.6634 28.2212 13.9475 28.2212 14.2884C28.2212 14.7827 28.4001 15.1606 28.7581 15.4219C29.1217 15.6776 29.5819 15.8054 30.1388 15.8054ZM42.9186 10.4958V18.064H39.2879V4.97306H42.7481V7.28271H42.9016C43.1913 6.52135 43.6771 5.91908 44.3589 5.4759C45.0408 5.02703 45.8675 4.8026 46.8391 4.8026C47.7481 4.8026 48.5408 5.00146 49.2169 5.39919C49.893 5.79692 50.4186 6.3651 50.7936 7.10374C51.1686 7.83669 51.3561 8.71169 51.3561 9.72874V18.064H47.7254V10.3765C47.7311 9.57533 47.5266 8.95033 47.1118 8.50146C46.697 8.04692 46.126 7.81965 45.3987 7.81965C44.9101 7.81965 44.4783 7.92476 44.1033 8.13499C43.7339 8.34521 43.4442 8.65203 43.2339 9.05544C43.0294 9.45317 42.9243 9.93328 42.9186 10.4958ZM59.0415 18.277C58.0471 18.277 57.1466 18.0214 56.3398 17.51C55.5386 16.9929 54.9023 16.2344 54.4307 15.2344C53.9648 14.2287 53.7318 12.9958 53.7318 11.5356C53.7318 10.0356 53.9733 8.7884 54.4562 7.79408C54.9392 6.79408 55.5812 6.04692 56.3824 5.5526C57.1892 5.0526 58.0727 4.8026 59.0329 4.8026C59.7659 4.8026 60.3767 4.9276 60.8653 5.1776C61.3596 5.42192 61.7574 5.72874 62.0585 6.09806C62.3653 6.46169 62.5983 6.81965 62.7574 7.17192H62.8682V0.609419H66.4903V18.064H62.9108V15.9674H62.7574C62.5869 16.331 62.3454 16.6918 62.0329 17.0498C61.7261 17.402 61.3256 17.6946 60.8312 17.9276C60.3426 18.1606 59.746 18.277 59.0415 18.277ZM60.192 15.3878C60.7773 15.3878 61.2716 15.2287 61.675 14.9106C62.0841 14.5867 62.3966 14.135 62.6125 13.5554C62.8341 12.9759 62.9449 12.2969 62.9449 11.5185C62.9449 10.7401 62.8369 10.064 62.621 9.4901C62.4051 8.91624 62.0926 8.47306 61.6835 8.16056C61.2744 7.84806 60.7773 7.69181 60.192 7.69181C59.5954 7.69181 59.0926 7.85374 58.6835 8.1776C58.2744 8.50146 57.9648 8.95033 57.7545 9.52419C57.5443 10.0981 57.4392 10.7628 57.4392 11.5185C57.4392 12.2799 57.5443 12.9532 57.7545 13.5384C57.9704 14.1179 58.2801 14.5725 58.6835 14.902C59.0926 15.2259 59.5954 15.3878 60.192 15.3878ZM73.5237 10.2571V3.96737H76.6004C76.9981 3.96737 77.3618 4.04976 77.6913 4.21453C78.0266 4.37931 78.2908 4.61794 78.4839 4.93044C78.6828 5.23726 78.7822 5.61226 78.7822 6.05544C78.7822 6.49862 78.68 6.87646 78.4754 7.18896C78.2709 7.50146 77.9981 7.7401 77.6572 7.90487C77.3163 8.06396 76.9385 8.14351 76.5237 8.14351H74.4186V6.95885H76.1828C76.4214 6.95885 76.626 6.88215 76.7964 6.72874C76.9726 6.57533 77.0606 6.34806 77.0606 6.04692C77.0606 5.73442 76.9726 5.51283 76.7964 5.38215C76.626 5.24578 76.4243 5.1776 76.1913 5.1776H75.1601V10.2571H73.5237ZM77.5379 7.3509L78.9697 10.2571H77.18L75.8419 7.3509H77.5379ZM75.9868 14.0071C75.0436 14.0071 74.1601 13.831 73.3362 13.4787C72.5123 13.1265 71.7879 12.6378 71.1629 12.0128C70.5379 11.3878 70.0493 10.6634 69.697 9.83953C69.3447 9.01567 69.1686 8.13215 69.1686 7.18896C69.1686 6.24578 69.3447 5.36226 69.697 4.5384C70.0493 3.71453 70.5379 2.9901 71.1629 2.3651C71.7879 1.7401 72.5123 1.25146 73.3362 0.899192C74.1601 0.546919 75.0436 0.370782 75.9868 0.370782C76.93 0.370782 77.8135 0.546919 78.6373 0.899192C79.4612 1.25146 80.1856 1.7401 80.8106 2.3651C81.4356 2.9901 81.9243 3.71453 82.2766 4.5384C82.6288 5.36226 82.805 6.24578 82.805 7.18896C82.805 8.13215 82.6288 9.01567 82.2766 9.83953C81.9243 10.6634 81.4356 11.3878 80.8106 12.0128C80.1856 12.6378 79.4612 13.1265 78.6373 13.4787C77.8135 13.831 76.93 14.0071 75.9868 14.0071ZM75.9868 12.2089C76.9186 12.2089 77.7623 11.9844 78.518 11.5356C79.2794 11.081 79.8845 10.4759 80.3334 9.72021C80.7822 8.95885 81.0067 8.1151 81.0067 7.18896C81.0067 6.26283 80.7794 5.42192 80.3248 4.66624C79.876 3.90487 79.2709 3.29976 78.5095 2.8509C77.7538 2.39635 76.9129 2.16908 75.9868 2.16908C75.0663 2.16908 74.2254 2.39635 73.4641 2.8509C72.7027 3.29976 72.0976 3.90487 71.6487 4.66624C71.1998 5.42192 70.9754 6.26283 70.9754 7.18896C70.9754 8.1151 71.1998 8.95885 71.6487 9.72021C72.0976 10.4759 72.7027 11.081 73.4641 11.5356C74.2254 11.9844 75.0663 12.2089 75.9868 12.2089Z" fill="black"/>
</svg>
