<svg width="301" height="151" viewBox="0 0 301 151" fill="none" xmlns="http://www.w3.org/2000/svg">
<path d="M112.079 79.3283L110.515 83.7619H110.384C110.123 82.7621 109.645 81.2408 108.863 79.4152L100.474 58.3341H92.2587V91.9335H97.692V71.2001L97.6485 66.5927C97.605 65.6799 97.5181 64.9844 97.4746 64.4628H97.605C97.8658 65.7668 98.1701 66.7231 98.3874 67.3316L108.472 91.8466H112.297L122.294 67.1143C122.511 66.5492 122.729 65.4191 122.946 64.4628H123.076L122.815 70.5047V91.8031H128.596V58.2472H120.686L112.079 79.3283ZM134.073 67.7228H139.724V91.8031H134.073V67.7228ZM136.942 57.5517C135.986 57.5517 135.203 57.8994 134.551 58.508C133.899 59.1165 133.552 59.8989 133.552 60.8551C133.546 61.288 133.632 61.7173 133.804 62.1144C133.976 62.5116 134.231 62.8676 134.551 63.1589C135.203 63.7674 135.986 64.0716 136.942 64.0716C137.898 64.0716 138.724 63.7239 139.333 63.1589C139.653 62.8676 139.908 62.5116 140.08 62.1144C140.252 61.7173 140.338 61.288 140.332 60.8551C140.332 59.9424 139.985 59.16 139.333 58.508C138.768 57.8994 137.942 57.5517 136.942 57.5517ZM159.762 67.5055C158.719 67.2881 157.632 67.1577 156.589 67.1577C154.024 67.1577 151.677 67.7228 149.721 68.8529C147.765 69.9831 146.2 71.5478 145.201 73.5038C144.157 75.5033 143.636 77.807 143.636 80.4584C143.636 82.7621 144.157 84.805 145.157 86.6741C146.157 88.4997 147.548 89.9775 149.417 90.9773C151.199 91.977 153.285 92.4986 155.632 92.4986C158.327 92.4986 160.631 91.9335 162.457 90.8903L162.5 90.8469V85.6309L162.283 85.8048C161.457 86.4133 160.501 86.9349 159.544 87.2392C158.545 87.5869 157.632 87.7608 156.85 87.7608C154.589 87.7608 152.807 87.1088 151.547 85.6744C150.243 84.2835 149.591 82.3709 149.591 79.9803C149.591 77.5027 150.243 75.5467 151.59 74.1123C152.938 72.678 154.72 71.939 156.893 71.939C158.719 71.939 160.588 72.5476 162.283 73.7646L162.5 73.9385V68.4183L162.457 68.3748C161.718 68.0705 160.892 67.7228 159.762 67.5055ZM178.409 67.3316C177.018 67.3316 175.714 67.7663 174.584 68.6791C173.628 69.4615 172.976 70.5916 172.41 71.939H172.367V67.7228H166.716V91.8031H172.367V79.5022C172.367 77.4158 172.802 75.6771 173.758 74.4166C174.714 73.1126 175.931 72.4606 177.409 72.4606C177.931 72.4606 178.452 72.591 179.104 72.678C179.713 72.8518 180.147 73.0257 180.452 73.243L180.669 73.4169V67.7663L180.539 67.7228C180.147 67.462 179.365 67.3316 178.409 67.3316ZM193.796 67.2012C189.84 67.2012 186.667 68.3748 184.451 70.6785C182.19 72.9822 181.104 76.1553 181.104 80.1542C181.104 83.8923 182.234 86.9349 184.407 89.1517C186.58 91.325 189.536 92.4551 193.231 92.4551C197.099 92.4551 200.185 91.2815 202.402 88.9343C204.662 86.5872 205.749 83.4576 205.749 79.5891C205.749 75.7641 204.706 72.7214 202.576 70.5047C200.533 68.2879 197.534 67.2012 193.796 67.2012ZM198.316 85.7178C197.273 87.0653 195.621 87.7173 193.579 87.7173C191.536 87.7173 189.884 87.0653 188.71 85.6309C187.537 84.2835 186.972 82.3275 186.972 79.8499C186.972 77.2854 187.58 75.3294 188.71 73.9385C189.884 72.5476 191.492 71.8521 193.535 71.8521C195.535 71.8521 197.099 72.5041 198.229 73.8516C199.36 75.199 199.968 77.155 199.968 79.7195C199.881 82.3275 199.403 84.3704 198.316 85.7178ZM218.354 77.72C216.572 76.9811 215.442 76.4161 214.92 75.9379C214.486 75.5033 214.268 74.8947 214.268 74.1123C214.268 73.4604 214.529 72.8084 215.181 72.3737C215.833 71.939 216.572 71.7217 217.659 71.7217C218.615 71.7217 219.615 71.8956 220.571 72.1564C221.527 72.4172 222.397 72.8084 223.092 73.33L223.309 73.5038V68.2009L223.179 68.1575C222.527 67.8967 221.658 67.6359 220.615 67.4185C219.571 67.2447 218.615 67.1577 217.833 67.1577C215.138 67.1577 212.921 67.8097 211.182 69.2441C209.444 70.5916 208.618 72.4172 208.618 74.547C208.618 75.6771 208.792 76.6769 209.183 77.5027C209.574 78.3286 210.139 79.111 210.922 79.763C211.704 80.3715 212.834 81.067 214.399 81.7189C215.703 82.284 216.703 82.7187 217.311 83.0664C217.92 83.4141 218.311 83.8053 218.615 84.1096C218.832 84.4573 218.963 84.892 218.963 85.457C218.963 87.0653 217.746 87.8477 215.268 87.8477C214.312 87.8477 213.312 87.6738 212.139 87.2826C210.965 86.8914 209.878 86.3264 208.966 85.6744L208.748 85.5005V91.0207L208.879 91.0642C209.704 91.4554 210.704 91.7162 211.921 92.0204C213.138 92.2378 214.225 92.4116 215.181 92.4116C218.093 92.4116 220.484 91.7596 222.179 90.3253C223.918 88.9343 224.831 87.1522 224.831 84.8485C224.831 83.2403 224.396 81.8059 223.44 80.7192C222.179 79.676 220.615 78.5894 218.354 77.72ZM239.74 67.2012C235.784 67.2012 232.611 68.3748 230.394 70.6785C228.178 72.9822 227.048 76.1553 227.048 80.1542C227.048 83.8923 228.178 86.9349 230.351 89.1517C232.524 91.325 235.48 92.4551 239.175 92.4551C243.043 92.4551 246.129 91.2815 248.346 88.9343C250.606 86.5872 251.693 83.4576 251.693 79.5891C251.693 75.7641 250.65 72.7214 248.52 70.5047C246.477 68.2879 243.478 67.2012 239.74 67.2012ZM244.217 85.7178C243.174 87.0653 241.522 87.7173 239.479 87.7173C237.393 87.7173 235.784 87.0653 234.611 85.6309C233.437 84.2835 232.872 82.3275 232.872 79.8499C232.872 77.2854 233.481 75.3294 234.611 73.9385C235.784 72.5476 237.393 71.8521 239.435 71.8521C241.391 71.8521 243 72.5041 244.13 73.8516C245.26 75.199 245.868 77.155 245.868 79.7195C245.868 82.3275 245.303 84.3704 244.217 85.7178ZM281.902 72.3737V67.7228H276.208V60.5943L276.034 60.6378L270.644 62.2461L270.514 62.2895V67.7228H261.994V64.6802C261.994 63.2893 262.342 62.2026 262.951 61.5071C263.559 60.8117 264.472 60.4639 265.602 60.4639C266.385 60.4639 267.21 60.6378 268.123 61.029L268.34 61.1594V56.2477L268.21 56.2043C267.428 55.9435 266.384 55.7696 265.037 55.7696C263.342 55.7696 261.864 56.1608 260.517 56.8128C259.169 57.5517 258.169 58.5514 257.43 59.8989C256.691 61.2029 256.3 62.6807 256.3 64.3759V67.7228H252.345V72.3302H256.3V91.8031H261.994V72.3737H270.514V84.7616C270.514 89.8471 272.904 92.4116 277.686 92.4116C278.468 92.4116 279.294 92.2812 280.076 92.1508C280.902 91.977 281.511 91.7596 281.858 91.5858L281.902 91.5423V86.8914L281.685 87.0653C281.337 87.2826 281.033 87.4565 280.511 87.5869C280.076 87.7173 279.685 87.7608 279.381 87.7608C278.251 87.7608 277.468 87.5 276.903 86.848C276.382 86.2394 276.121 85.2397 276.121 83.7619V72.3737H281.902Z" fill="#5380EA" fill-opacity="0.6"/>
<path d="M19.4093 47.0329H46.0541V73.6777H19.4093V47.0329Z" fill="#5380EA" fill-opacity="0.6"/>
<path d="M48.8359 47.0329H75.4808V73.6777H48.8359V47.0329Z" fill="#5380EA" fill-opacity="0.6"/>
<path d="M19.4093 76.4595H46.0541V103.104H19.4093V76.4595Z" fill="#5380EA" fill-opacity="0.6"/>
<path d="M48.8359 76.4595H75.4808V103.104H48.8359V76.4595Z" fill="#5380EA" fill-opacity="0.6"/>
</svg>
