<svg width="89" height="73" viewBox="0 0 89 73" fill="none" xmlns="http://www.w3.org/2000/svg">
<path d="M88.6554 8.59195C85.3601 10.0617 81.8649 11.0264 78.2858 11.454C82.0138 9.20451 84.8762 5.64233 86.2241 1.39804C82.6802 3.51529 78.8029 5.00703 74.7596 5.80879C71.4662 2.27638 66.7743 0.0687561 61.5813 0.0687561C51.6105 0.0687561 43.5265 8.20711 43.5265 18.2447C43.5265 19.6695 43.6864 21.0566 43.994 22.3873C28.9893 21.629 15.6862 14.3929 6.78136 3.39594C5.22761 6.08047 4.3373 9.20312 4.3373 12.5338C4.3373 18.84 7.5249 24.4032 12.369 27.6629C9.50197 27.5725 6.698 26.7929 4.19121 25.3892C4.19018 25.4653 4.19018 25.5414 4.19018 25.6179C4.19018 34.4245 10.4134 41.7711 18.6724 43.4409C16.0138 44.1688 13.2251 44.2754 10.5193 43.7524C12.8166 50.9736 19.4843 56.2285 27.3844 56.3755C21.2055 61.2504 13.4206 64.1564 4.96224 64.1564C3.50474 64.1564 2.06786 64.0702 0.655396 63.9024C8.64518 69.0596 18.1351 72.0688 28.3307 72.0688C61.5394 72.0688 79.6986 44.3718 79.6986 20.3527C79.6986 19.5643 79.6815 18.7805 79.6464 18.0011C83.1809 15.4287 86.2317 12.2424 88.6554 8.59195Z" fill="#5380EA" fill-opacity="0.6"/>
</svg>
